<?xml version="1.0" encoding="UTF-8"?>
<svg version="1.1" xmlns="http://www.w3.org/2000/svg" width="512" height="512">
<path d="M0 0 C0.92320038 0.00215515 1.84640076 0.0043103 2.7975769 0.00653076 C16.8396985 0.05904851 30.57510247 0.48807734 44.375 3.3125 C45.37692383 3.51649414 46.37884766 3.72048828 47.41113281 3.93066406 C90.14019033 12.9159296 128.90621554 32.09628361 161.375 61.3125 C161.93703125 61.81281738 162.4990625 62.31313477 163.078125 62.82861328 C207.76763816 102.68786656 236.88706143 160.46842436 241.375 220.3125 C241.71614727 227.18413146 241.71649632 234.05909108 241.6875 240.9375 C241.68534485 241.86070038 241.6831897 242.78390076 241.68096924 243.7350769 C241.62845149 257.7771985 241.19942266 271.51260247 238.375 285.3125 C238.17100586 286.31442383 237.96701172 287.31634766 237.75683594 288.34863281 C228.7715704 331.07769033 209.59121639 369.84371554 180.375 402.3125 C179.87468262 402.87453125 179.37436523 403.4365625 178.85888672 404.015625 C148.92825811 437.57333396 108.77715569 462.47232092 65.375 474.3125 C64.55354492 474.53776367 63.73208984 474.76302734 62.88574219 474.99511719 C56.75583179 476.64087253 50.5965536 478.05836638 44.375 479.3125 C43.14160889 479.56241699 43.14160889 479.56241699 41.88330078 479.81738281 C-17.51663457 491.14617601 -82.6426175 476.71616121 -132.625 443.3125 C-142.46597883 436.60220186 -151.71240644 429.20620175 -160.625 421.3125 C-161.17430176 420.8263623 -161.72360352 420.34022461 -162.28955078 419.83935547 C-207.00726423 379.99946629 -236.13719109 322.15484671 -240.625 262.3125 C-240.96614727 255.44086854 -240.96649632 248.56590892 -240.9375 241.6875 C-240.93534485 240.76429962 -240.9331897 239.84109924 -240.93096924 238.8899231 C-240.87845149 224.8478015 -240.44942266 211.11239753 -237.625 197.3125 C-237.42100586 196.31057617 -237.21701172 195.30865234 -237.00683594 194.27636719 C-228.0215704 151.54730967 -208.84121639 112.78128446 -179.625 80.3125 C-179.12468262 79.75046875 -178.62436523 79.1884375 -178.10888672 78.609375 C-132.99549467 28.0290113 -67.53387681 -0.28469291 0 0 Z " fill="#FDAD56" transform="translate(255.625,14.6875)"/>
<path d="M0 0 C0.92320038 0.00215515 1.84640076 0.0043103 2.7975769 0.00653076 C16.8396985 0.05904851 30.57510247 0.48807734 44.375 3.3125 C45.37692383 3.51649414 46.37884766 3.72048828 47.41113281 3.93066406 C90.14019033 12.9159296 128.90621554 32.09628361 161.375 61.3125 C161.93703125 61.81281738 162.4990625 62.31313477 163.078125 62.82861328 C207.76763816 102.68786656 236.88706143 160.46842436 241.375 220.3125 C241.71614727 227.18413146 241.71649632 234.05909108 241.6875 240.9375 C241.68534485 241.86070038 241.6831897 242.78390076 241.68096924 243.7350769 C241.62845149 257.7771985 241.19942266 271.51260247 238.375 285.3125 C238.17100586 286.31442383 237.96701172 287.31634766 237.75683594 288.34863281 C228.7715704 331.07769033 209.59121639 369.84371554 180.375 402.3125 C179.87468262 402.87453125 179.37436523 403.4365625 178.85888672 404.015625 C148.92825811 437.57333396 108.77715569 462.47232092 65.375 474.3125 C64.55354492 474.53776367 63.73208984 474.76302734 62.88574219 474.99511719 C56.75583179 476.64087253 50.5965536 478.05836638 44.375 479.3125 C43.14160889 479.56241699 43.14160889 479.56241699 41.88330078 479.81738281 C-17.51663457 491.14617601 -82.6426175 476.71616121 -132.625 443.3125 C-142.46597883 436.60220186 -151.71240644 429.20620175 -160.625 421.3125 C-161.17430176 420.8263623 -161.72360352 420.34022461 -162.28955078 419.83935547 C-207.00726423 379.99946629 -236.13719109 322.15484671 -240.625 262.3125 C-240.96614727 255.44086854 -240.96649632 248.56590892 -240.9375 241.6875 C-240.93534485 240.76429962 -240.9331897 239.84109924 -240.93096924 238.8899231 C-240.87845149 224.8478015 -240.44942266 211.11239753 -237.625 197.3125 C-237.42100586 196.31057617 -237.21701172 195.30865234 -237.00683594 194.27636719 C-228.0215704 151.54730967 -208.84121639 112.78128446 -179.625 80.3125 C-179.12468262 79.75046875 -178.62436523 79.1884375 -178.10888672 78.609375 C-132.99549467 28.0290113 -67.53387681 -0.28469291 0 0 Z M-150.14697266 73.03417969 C-151.49260772 74.1979962 -152.84552834 75.35337546 -154.19921875 76.5078125 C-158.44593842 80.18493819 -162.28239622 83.9890454 -165.90234375 88.28515625 C-167.0297715 89.61199299 -168.18815317 90.91328033 -169.37890625 92.18359375 C-210.16657332 135.86641882 -227.34013102 195.36352715 -225.74609375 254.04003906 C-225.48030936 261.22264781 -224.84930541 268.22965545 -223.625 275.3125 C-223.46902344 276.21597168 -223.31304687 277.11944336 -223.15234375 278.05029297 C-215.45921445 321.02496803 -196.43280608 359.63100129 -167.625 392.3125 C-166.90441406 393.15554688 -166.18382812 393.99859375 -165.44140625 394.8671875 C-161.78398915 399.10209151 -157.99824972 402.91878196 -153.71875 406.5234375 C-152.2915919 407.74291215 -150.89628521 409.00042852 -149.53125 410.2890625 C-123.21232506 435.07572126 -88.91023538 452.61051911 -53.84326172 460.77709961 C-52.18379706 461.17762855 -50.5299587 461.60159636 -48.87939453 462.03735352 C-22.39834123 468.97286747 7.38938653 469.91868476 34.375 465.3125 C35.25188477 465.1671582 36.12876953 465.02181641 37.03222656 464.87207031 C79.65404065 457.5567127 118.68679027 438.35268124 150.87939453 409.640625 C152.23886528 408.43339012 153.61654184 407.24673532 154.99609375 406.0625 C159.92720205 401.8049495 164.18359079 397.28826649 168.375 392.3125 C169.30156875 391.25751627 170.23011925 390.20427126 171.16015625 389.15234375 C190.6278625 367.01633214 204.02283962 341.76545445 214.375 314.3125 C214.74818359 313.34111084 214.74818359 313.34111084 215.12890625 312.35009766 C234.92722663 260.23809009 229.01646534 199.22513437 207.0625 148.94140625 C199.4976277 132.17539188 189.81721847 116.70352977 178.375 102.3125 C177.61316406 101.34699219 176.85132813 100.38148437 176.06640625 99.38671875 C171.77384308 94.03730192 167.32267396 89.05591219 162.375 84.3125 C159.97782696 81.9383767 157.60332559 79.55627619 155.296875 77.09375 C142.61138659 63.76942405 127.11169016 53.66510902 111.375 44.3125 C110.73916992 43.93254883 110.10333984 43.55259766 109.44824219 43.16113281 C26.39241926 -5.73499734 -79.25123536 11.67231533 -150.14697266 73.03417969 Z " fill="#010100" transform="translate(255.625,14.6875)"/>
<path d="M0 0 C1.8944989 -0.00591408 1.8944989 -0.00591408 3.82727051 -0.01194763 C7.26104127 -0.02184586 10.69397449 -0.00088518 14.12762403 0.02653241 C17.73184436 0.05050912 21.33605227 0.04741854 24.94033813 0.0478363 C30.98413126 0.05244971 37.02760722 0.07600097 43.07128906 0.11230469 C50.05492333 0.15414327 57.03827308 0.17162689 64.02202547 0.17492443 C71.47275503 0.17852386 78.9233827 0.19738503 86.37406969 0.22204471 C88.51667732 0.22826745 90.65927721 0.23190723 92.80189133 0.23507881 C96.78989931 0.24207718 100.77769673 0.26646657 104.765625 0.29296875 C106.54388168 0.29396576 106.54388168 0.29396576 108.35806274 0.29498291 C109.98539337 0.3099456 109.98539337 0.3099456 111.64559937 0.32521057 C112.58758871 0.32986108 113.52957806 0.33451159 114.50011253 0.33930302 C117.14218789 0.61474878 118.76671363 1.17114478 120.99462891 2.59936523 C122.9281931 6.46649362 122.83974349 10.41682022 121.99462891 14.59936523 C119.6786577 18.28638499 116.68189532 21.10383706 113.52587891 24.07983398 C112.22257629 25.36546989 112.22257629 25.36546989 110.89294434 26.67707825 C108.11614266 29.4046938 105.30637102 32.09533039 102.49462891 34.78686523 C100.63302404 36.6068528 98.77362337 38.42909786 96.91650391 40.25366211 C83.82564687 53.06028783 83.82564687 53.06028783 77.98144531 58.08618164 C73.31335945 62.12533009 69.0067227 66.49912697 64.67431641 70.89233398 C62.90491905 72.67436798 61.1353837 74.45626497 59.36572266 76.23803711 C56.60775414 79.02087215 53.85142244 81.80529139 51.09765625 84.59228516 C48.41928566 87.30088083 45.73471092 90.00320446 43.04931641 92.70483398 C41.82098587 93.95335396 41.82098587 93.95335396 40.56784058 95.22709656 C32.97829738 102.84974674 25.73460858 108.58223278 14.61962891 109.03686523 C7.23647252 108.81158168 -0.09056651 106.35189359 -5.58740234 101.23999023 C-20.37163761 84.13426348 -36.46172498 49.95995499 -35.38037109 27.15014648 C-34.10399362 18.46812057 -29.81289359 11.14204594 -23.00537109 5.59936523 C-15.39950713 0.69597489 -8.91538003 -0.11271343 0 0 Z " fill="#040301" transform="translate(99.00537109375,265.400634765625)"/>
<path d="M0 0 C6.94929002 4.67595639 11.1079465 10.15164814 14 18 C14.67393051 22.34253019 14.66490011 26.60160778 14.61523438 30.98950195 C14.62078339 32.25089493 14.6263324 33.5122879 14.63204956 34.81190491 C14.64618574 38.24158794 14.6293524 41.67045851 14.60576439 45.10006356 C14.58553026 48.70115997 14.59154105 52.30222677 14.59387207 55.90336609 C14.59381867 61.94295524 14.57415551 67.98222975 14.54199219 74.02172852 C14.50502299 80.9974433 14.4963298 87.97274768 14.5032897 94.94854766 C14.50959808 101.67620064 14.49883964 108.40371345 14.47932434 115.13133812 C14.4711647 117.9880899 14.46843808 120.84476991 14.47001648 123.70153236 C14.47105997 127.68699755 14.44686862 131.67209186 14.41992188 135.6574707 C14.42285248 136.83937988 14.42578308 138.02128906 14.42880249 139.23901367 C14.4174527 140.32527542 14.40610291 141.41153717 14.39440918 142.53071594 C14.38881611 143.94231727 14.38881611 143.94231727 14.38311005 145.3824358 C13.92210308 148.53222356 12.85127004 150.43114891 11 153 C7.98221063 154.50889469 6.37677363 154.50026276 3 154 C1.21474075 152.70914555 1.21474075 152.70914555 -0.68768311 150.98292542 C-1.39178062 150.34425097 -2.09587814 149.70557652 -2.82131195 149.04754829 C-6.40063411 145.68367296 -9.89999758 142.24741651 -13.37207031 138.77319336 C-14.16660614 137.98201614 -14.96114197 137.19083893 -15.77975464 136.37568665 C-18.38184271 133.78302882 -20.98020861 131.18668127 -23.578125 128.58984375 C-25.39549606 126.775689 -27.21294107 124.96160834 -29.03045654 123.14759827 C-32.82807283 119.3559521 -36.62365511 115.56228467 -40.41796875 111.76733398 C-44.79418036 107.39052024 -49.17595648 103.01933237 -53.56034017 98.65070623 C-57.7956515 94.43007051 -62.02539253 90.20389774 -66.25307465 85.97561836 C-68.04559716 84.18427474 -69.83973879 82.39454976 -71.63553619 80.60648918 C-74.14363833 78.10818972 -76.6453191 75.60362757 -79.14550781 73.09741211 C-79.88531891 72.36322052 -80.62513 71.62902893 -81.38735962 70.87258911 C-88.6852353 63.52995405 -94.00160692 56.28183435 -94.4375 45.625 C-94.17796849 37.11944458 -91.03420744 30.01628109 -85 24 C-82.69306304 22.18037107 -80.26414338 20.64164401 -77.75 19.125 C-77.05326172 18.69864258 -76.35652344 18.27228516 -75.63867188 17.83300781 C-55.57123271 5.80868435 -22.88406447 -11.82621726 0 0 Z " fill="#040301" transform="translate(232,68)"/>
<path d="M0 0 C7.7090179 1.81388656 14.068237 10.4779872 19.54370117 15.94506836 C20.33663071 16.73303299 21.12956024 17.52099762 21.94651794 18.33283997 C24.54392596 20.91575471 27.13752525 23.50244763 29.73046875 26.08984375 C30.62156153 26.97810915 31.5126543 27.86637455 32.43074989 28.78155708 C36.65686812 32.99427248 40.88123874 37.2087263 45.10260123 41.42620653 C49.95183836 46.27095699 54.8075603 51.10908207 59.66899127 55.94159597 C63.9010932 60.14940592 68.12485917 64.36551709 72.3456974 68.58462715 C74.13371636 70.36962677 75.92422746 72.15213376 77.71730614 73.9320507 C80.22519222 76.42282691 82.72338172 78.92295788 85.21948242 81.42553711 C85.95569824 82.15253815 86.69191406 82.87953918 87.45043945 83.62857056 C94.52937164 90.76503262 100.06307839 98.15713949 100.5625 108.5 C100.3808064 116.55508314 96.92571519 125.01178481 91.1875 130.75 C72.89812506 144.88859481 41.16346771 160.22053518 17.640625 159.12890625 C8.37814678 157.69823684 1.425218 151.92495216 -4.1875 144.6875 C-8.12764443 137.56493122 -8.11442808 131.1888772 -8.11889648 123.21459961 C-8.12722 121.95379074 -8.13554352 120.69298187 -8.14411926 119.39396667 C-8.1659881 115.94780614 -8.17485201 112.50173426 -8.17994571 109.05551219 C-8.18359616 106.90092028 -8.18983956 104.74635137 -8.1969471 102.59176826 C-8.22140824 95.07117828 -8.23448774 87.55065703 -8.23803711 80.0300293 C-8.24167714 73.0247783 -8.27161399 66.01996412 -8.31344169 59.01484674 C-8.34813275 52.99345079 -8.36358528 46.97219985 -8.36428314 40.95070463 C-8.36507592 37.3571961 -8.37381487 33.76413373 -8.40228081 30.17072868 C-8.43330381 26.16550647 -8.42440785 22.16132851 -8.41186523 18.15600586 C-8.42669952 16.9678125 -8.44153381 15.77961914 -8.45681763 14.55541992 C-8.37687042 5.61349588 -8.37687042 5.61349588 -5.45082092 2.52149963 C-2.8125 0.75 -2.8125 0.75 0 0 Z " fill="#040301" transform="translate(273.8125,289.25)"/>
<path d="M0 0 C18.79284657 14.84511512 31.03544788 48.06231431 34.15625 71.15625 C34.66179021 80.97598559 30.72050193 89.0159651 24.46875 96.33984375 C16.16144851 102.74867896 7.94358519 104.14603357 -2.31787109 104.05712891 C-3.5794101 104.0658905 -4.8409491 104.0746521 -6.14071655 104.0836792 C-9.56616164 104.10626061 -12.99084472 104.09772943 -16.41630125 104.08178377 C-20.01474621 104.06903017 -23.61313056 104.08088938 -27.21157837 104.0887146 C-33.24517422 104.09777688 -39.27846266 104.08590652 -45.31201172 104.06201172 C-52.28050357 104.03473244 -59.24826543 104.04367687 -66.21674001 104.07114375 C-72.21705373 104.09384367 -78.21714801 104.09703295 -84.21749079 104.0839504 C-87.79409617 104.07617008 -91.37035827 104.07507617 -94.94694138 104.09163284 C-98.92764415 104.10877877 -102.90752924 104.08500755 -106.88818359 104.05712891 C-108.6586908 104.07231064 -108.6586908 104.07231064 -110.46496582 104.08779907 C-119.34711262 103.97235978 -119.34711262 103.97235978 -122.46963501 101.07675171 C-124.21484375 98.41015625 -124.21484375 98.41015625 -124.46484375 95.09765625 C-121.76700353 87.1390276 -114.07519524 81.11571144 -108.23510742 75.25341797 C-107.08724007 74.09569382 -107.08724007 74.09569382 -105.91618347 72.9145813 C-103.40794079 70.38678717 -100.89583686 67.86288375 -98.3828125 65.33984375 C-97.51910852 64.47206425 -96.65540455 63.60428474 -95.76552773 62.71020889 C-91.19878402 58.12268812 -86.6288297 53.53839263 -82.05639648 48.95654297 C-77.35074359 44.23980551 -72.65692603 39.5115397 -67.96558666 34.78056145 C-64.33900433 31.12778314 -60.70351526 27.48396752 -57.06560707 23.84247208 C-55.33160395 22.10361578 -53.60096408 20.36139851 -51.87386131 18.61568832 C-49.45288745 16.17024682 -47.01945653 13.73787124 -44.58276367 11.30810547 C-43.88165466 10.5941864 -43.18054565 9.88026733 -42.45819092 9.14471436 C-31.38419822 -1.81565541 -14.57665825 -9.78134638 0 0 Z " fill="#040301" transform="translate(414.21484375,142.58984375)"/>
<path d="M0 0 C8.26809756 6.23630401 15.45987385 14.30529621 22.76000977 21.62963867 C24.69109547 23.56610549 26.62749882 25.49713956 28.56445312 27.42773438 C29.8180292 28.68197105 31.07129516 29.93651777 32.32421875 31.19140625 C32.89105881 31.75622208 33.45789886 32.3210379 34.04191589 32.90296936 C36.9101129 35.78767071 39.65769276 38.7277106 42.30908203 41.81347656 C46.54875709 46.70923118 51.13113857 51.23750737 55.73046875 55.79296875 C57.12522912 57.18194342 58.51998667 58.57092093 59.91457844 59.96006489 C62.33673319 62.37137681 64.76221897 64.77933316 67.1875 67.1875 C70.09687722 70.07642846 73.0056242 72.9659723 75.91047668 75.85945129 C77.71223607 77.65371311 79.51624973 79.44571484 81.32279968 81.2351532 C82.54976311 82.45716179 82.54976311 82.45716179 83.80151367 83.70385742 C84.51764328 84.41475021 85.23377289 85.12564301 85.97160339 85.858078 C91.8721167 92.0888315 91.8721167 92.0888315 92.5 96.5625 C91.91109569 100.61121713 91.15759876 101.51385667 88 104 C85.49545288 104.48774719 85.49545288 104.48774719 82.62646484 104.4699707 C81.536064 104.47283081 80.44566315 104.47569092 79.32221985 104.4786377 C78.13049667 104.46119507 76.9387735 104.44375244 75.7109375 104.42578125 C74.45182053 104.42308228 73.19270355 104.4203833 71.89543152 104.41760254 C68.44214291 104.40920332 64.98954133 104.37529176 61.53648758 104.3355751 C57.91494937 104.29691313 54.29329788 104.27728884 50.67163086 104.25463867 C44.57989862 104.21350004 38.48848452 104.15555775 32.39697266 104.08984375 C25.36153706 104.01482281 18.32659009 103.97688553 11.29079437 103.9588747 C5.2290623 103.94279755 -0.83237073 103.90861009 -6.89392853 103.8598814 C-10.51058905 103.83106969 -14.12693211 103.80932364 -17.74371338 103.80581665 C-21.78672846 103.80086514 -25.82836818 103.75566247 -29.87109375 103.70703125 C-31.05693558 103.71093872 -32.2427774 103.71484619 -33.46455383 103.71887207 C-41.12430351 103.5838747 -46.48458879 102.0300932 -53 98 C-53.9075 97.443125 -54.815 96.88625 -55.75 96.3125 C-62.44874908 89.42767456 -65.34871208 82.20200127 -65.3828125 72.77856445 C-64.90233158 49.90316832 -50.68622888 19.18252941 -35.10546875 2.8125 C-24.57816964 -6.24996157 -11.99503136 -5.62202558 0 0 Z " fill="#030201" transform="translate(129,143)"/>
<path d="M0 0 C1.96805099 0.01731171 1.96805099 0.01731171 3.9758606 0.03497314 C5.43719897 0.06772715 6.89853307 0.1006727 8.35986328 0.13378906 C9.90784211 0.1539632 11.4558496 0.17203027 13.00387573 0.18817139 C16.39758188 0.22553686 19.79095582 0.27316726 23.18444824 0.32641602 C28.89428187 0.40983209 34.6035909 0.4319423 40.31396484 0.44433594 C49.62433328 0.46559155 58.9341368 0.51317967 68.24426651 0.58338165 C73.60801071 0.62322874 78.97157329 0.65529952 84.33544922 0.67041016 C89.6344587 0.68557268 94.93302604 0.71992203 100.23183823 0.76772308 C102.22277884 0.78244151 104.21378192 0.79044953 106.20477676 0.79129791 C108.968059 0.79367121 111.73009763 0.8207472 114.49316406 0.85351562 C115.69462822 0.84597008 115.69462822 0.84597008 116.92036438 0.83827209 C125.19255855 0.9894796 133.75612479 4.50364017 139.68017578 10.39941406 C146.25200977 19.78986759 147.61020802 27.14842229 146.68017578 38.39941406 C145.81387289 42.93508908 144.31209555 47.08615304 142.68017578 51.39941406 C142.12511751 52.97825403 141.57186735 54.55773034 141.02001953 56.13769531 C126.25036329 97.52240483 126.25036329 97.52240483 110.36767578 105.96191406 C102.55828797 109.00625168 94.67295712 109.76153791 86.61767578 106.96191406 C75.66026308 101.82288864 66.94490455 90.82152703 58.49291992 82.3425293 C56.48940592 80.33363542 54.48057427 78.33017017 52.47119141 76.32714844 C51.17204242 75.02733885 49.87320356 73.7272192 48.57470703 72.42675781 C47.98599319 71.84006821 47.39727936 71.2533786 46.79072571 70.64891052 C43.86247965 67.70440869 41.05119933 64.70796557 38.34375 61.55859375 C34.18082615 56.74918789 29.68633716 52.29887217 25.16845703 47.82519531 C24.27781052 46.93833542 23.387164 46.05147552 22.4695282 45.13774109 C19.64633733 42.32668372 16.82001614 39.5187961 13.99267578 36.71191406 C10.25655925 33.00272164 6.52408459 29.28991067 2.79345703 25.57519531 C1.9392366 24.72927322 1.08501617 23.88335114 0.20491028 23.01179504 C-0.59304459 22.2171434 -1.39099945 21.42249176 -2.21313477 20.60375977 C-3.26068184 19.56406792 -3.26068184 19.56406792 -4.32939148 18.50337219 C-10.19262211 12.30572908 -10.19262211 12.30572908 -10.81982422 7.83691406 C-9.8536277 1.19431297 -6.27350234 -0.10720503 0 0 Z " fill="#030201" transform="translate(301.31982421875,264.6005859375)"/>
<path d="M0 0 C1.6867075 1.20096588 1.6867075 1.20096588 3 3 C3.38031673 5.36867523 3.38031673 5.36867523 3.38768005 8.2220459 C3.39758469 9.30411316 3.40748932 10.38618042 3.41769409 11.5010376 C3.41319244 12.68856628 3.4086908 13.87609497 3.40405273 15.09960938 C3.41091599 16.35034241 3.41777924 17.60107544 3.42485046 18.88970947 C3.44003931 22.32422788 3.44160442 25.75820451 3.43590808 29.1927166 C3.43281787 32.06488841 3.43890777 34.93701113 3.44494683 37.80917597 C3.4590078 44.59417958 3.45742164 51.37905738 3.44604492 58.1640625 C3.4346 65.1435253 3.44857417 72.1226022 3.4754414 79.10201406 C3.49767976 85.10562122 3.50421645 91.10910801 3.49836498 97.11275339 C3.49500893 100.69299446 3.49731776 104.27298906 3.51461601 107.85319519 C3.53311598 111.85745142 3.51881509 115.86097184 3.50170898 119.86523438 C3.51137695 121.03656921 3.52104492 122.20790405 3.53100586 123.41473389 C3.43532076 134.16262536 0.92240616 143.22787851 -6.67578125 151.05078125 C-13.47805887 156.75554853 -19.99749329 158.45859677 -28.74365234 158.29663086 C-34.33992079 157.78684932 -39.40720896 156.10526906 -44.6875 154.25 C-45.84435303 153.85312988 -47.00120605 153.45625977 -48.19311523 153.04736328 C-92.03200746 137.51668641 -92.03200746 137.51668641 -101.25 120.72265625 C-104.83660281 112.83960216 -105.35872453 105.17154367 -102.5625 96.9375 C-97.51168204 86.14410944 -86.72300247 77.56502636 -78.37036133 69.23999023 C-76.43389451 67.30890453 -74.50286044 65.37250118 -72.57226562 63.43554688 C-71.31802895 62.1819708 -70.06348223 60.92870484 -68.80859375 59.67578125 C-68.24377792 59.10894119 -67.6789621 58.54210114 -67.09703064 57.95808411 C-64.21232929 55.0898871 -61.2722894 52.34230724 -58.18652344 49.69091797 C-53.29076882 45.45124291 -48.76249263 40.86886143 -44.20703125 36.26953125 C-42.81805658 34.87477088 -41.42907907 33.48001333 -40.03993511 32.08542156 C-37.62862319 29.66326681 -35.22066684 27.23778103 -32.8125 24.8125 C-29.92357154 21.90312278 -27.0340277 18.9943758 -24.14054871 16.08952332 C-22.34628689 14.28776393 -20.55428516 12.48375027 -18.7648468 10.67720032 C-17.54283821 9.45023689 -17.54283821 9.45023689 -16.29614258 8.19848633 C-15.58524979 7.48235672 -14.87435699 6.76622711 -14.141922 6.02839661 C-9.38284174 1.52155543 -6.82452753 -0.88466098 0 0 Z " fill="#050401" transform="translate(243,291)"/>
<path d="M0 0 C0.86971436 0.27505371 1.73942871 0.55010742 2.63549805 0.83349609 C5.22180641 1.66219507 7.79881651 2.51541941 10.375 3.375 C11.06899902 3.59929687 11.76299805 3.82359375 12.47802734 4.0546875 C29.40853743 9.57745142 53.02443241 18.15119232 61.9375 34.625 C65.11532981 42.23388827 65.65688413 50.52586854 62.9375 58.375 C57.92838063 69.20883182 47.10960892 77.79840555 38.74536133 86.13500977 C36.80889451 88.06609547 34.87786044 90.00249882 32.94726562 91.93945312 C31.69302895 93.1930292 30.43848223 94.44629516 29.18359375 95.69921875 C28.61877792 96.26605881 28.0539621 96.83289886 27.47203064 97.41691589 C24.58732929 100.2851129 21.6472894 103.03269276 18.56152344 105.68408203 C13.66576882 109.92375709 9.13749263 114.50613857 4.58203125 119.10546875 C3.19305658 120.50022912 1.80407907 121.89498667 0.41493511 123.28957844 C-1.99637681 125.71173319 -4.40433316 128.13721897 -6.8125 130.5625 C-9.70142846 133.47187722 -12.5909723 136.3806242 -15.48445129 139.28547668 C-17.27871311 141.08723607 -19.07071484 142.89124973 -20.8601532 144.69779968 C-21.67482559 145.5157753 -22.48949799 146.33375092 -23.32885742 147.17651367 C-24.03975021 147.89264328 -24.75064301 148.60877289 -25.483078 149.34660339 C-31.71655672 155.24969748 -31.71655672 155.24969748 -36.25 155.875 C-39.625 155.375 -39.625 155.375 -41.3117075 153.67527103 C-42.8860045 150.91784283 -43.00444318 149.234424 -43.01268005 146.07066345 C-43.02258469 144.99563568 -43.03248932 143.92060791 -43.04269409 142.81300354 C-43.03819244 141.63842087 -43.0336908 140.4638382 -43.02905273 139.25366211 C-43.03591599 138.01253662 -43.04277924 136.77141113 -43.04985046 135.49267578 C-43.06502291 132.08920535 -43.06660915 128.68628237 -43.06090808 125.28281856 C-43.05781499 122.43544972 -43.06391084 119.58813029 -43.06994683 116.74076849 C-43.08399937 110.01471856 -43.08242809 103.28879557 -43.07104492 96.56274414 C-43.05959555 89.64517531 -43.07358365 82.72799563 -43.1004414 75.81047815 C-43.12268003 69.85780559 -43.12921654 63.90525442 -43.12336498 57.95254332 C-43.12000964 54.40361545 -43.12231321 50.85493623 -43.13961601 47.30604362 C-43.15811661 43.33791073 -43.14381444 39.37024579 -43.12670898 35.40209961 C-43.13637695 34.24168655 -43.14604492 33.0812735 -43.15600586 31.88569641 C-43.05783171 20.95664601 -40.40945912 12.22023392 -32.78515625 4.25390625 C-22.91264039 -4.33321876 -11.73404437 -3.82364973 0 0 Z " fill="#040301" transform="translate(308.625,65.625)"/>
<path d="M0 0 C6.93718476 2.33649202 11.59338722 7.07852516 16.5625 12.25 C17.27857422 12.97574219 17.99464844 13.70148438 18.73242188 14.44921875 C21.98888093 17.77382936 25.13482713 21.1510549 28.16748047 24.68066406 C32.3708471 29.50326341 36.88891328 33.97809476 41.44140625 38.46875 C43.25990083 40.27460344 45.078256 42.08059728 46.89648438 43.88671875 C49.73398369 46.69939885 52.57286768 49.51064274 55.41479492 52.31884766 C58.17812766 55.05185608 60.93510649 57.79115132 63.69140625 60.53125 C64.53530411 61.36168823 65.37920197 62.19212646 66.24867249 63.04772949 C70.96880454 67.74787146 75.1950992 72.52726932 79 78 C70.06919102 78.02363612 61.13839351 78.04116654 52.20755959 78.05181217 C48.05633023 78.05693293 43.90512291 78.06382136 39.75390625 78.07543945 C28.5021137 78.1058192 17.25151799 78.08795297 6 78 C5.18947678 77.99416649 4.37895355 77.98833298 3.54386902 77.98232269 C-1.23781945 77.94494422 -6.01817586 77.88301222 -10.79906082 77.78719902 C-12.27516861 77.76011163 -13.75141072 77.73946428 -15.22770309 77.72572517 C-17.26357077 77.70497957 -19.29910105 77.65667481 -21.33447266 77.60717773 C-22.4816275 77.58662827 -23.62878235 77.5660788 -24.81069946 77.54490662 C-29.57917493 76.73019072 -32.75564449 74.4517481 -35.875 70.8125 C-40.34606259 59.63484353 -33.94104063 45.93713778 -29.59790039 35.54663086 C-26.11830645 27.46855362 -22.43202245 19.51934911 -18.1875 11.8125 C-17.83921143 11.1719165 -17.49092285 10.53133301 -17.13208008 9.87133789 C-12.9414729 2.5674235 -8.3865597 -0.67633546 0 0 Z " fill="#FCD24F" transform="translate(116,154)"/>
<path d="M0 0 C8.94807972 -0.02361932 17.89614802 -0.04115866 26.84425259 -0.05181217 C31.00335766 -0.05693633 35.16244077 -0.06383181 39.3215332 -0.07543945 C50.54817384 -0.10566871 61.77363913 -0.08904817 73 0 C74.18936031 0.00875027 74.18936031 0.00875027 75.40274811 0.01767731 C80.03977253 0.05489387 84.6754131 0.11668097 89.31160164 0.21280098 C90.73303533 0.23983797 92.15460684 0.26050947 93.576231 0.27427483 C107.05113609 0.41723892 107.05113609 0.41723892 113 5 C116.00223087 8.3896155 116.59036363 11.62993023 116.3984375 16.1328125 C113.86790979 34.34268839 104.33113042 62.74802485 90.45703125 75.30078125 C86.83512568 77.80559671 83.56303487 78.46996455 79.16308594 78.40649414 C72.20883657 77.09962899 66.19945052 69.4814929 61.4375 64.625 C60.81681641 64.00367188 60.19613281 63.38234375 59.55664062 62.7421875 C56.54164587 59.6988977 53.65156816 56.60048499 50.85986328 53.35107422 C46.64729875 48.5175565 42.12125039 44.03193086 37.55859375 39.53125 C35.74009917 37.72539656 33.921744 35.91940272 32.10351562 34.11328125 C29.26601631 31.30060115 26.42713232 28.48935726 23.58520508 25.68115234 C20.82187234 22.94814392 18.06489351 20.20884868 15.30859375 17.46875 C14.46469589 16.63831177 13.62079803 15.80787354 12.75132751 14.95227051 C8.03119546 10.25212854 3.8049008 5.47273068 0 0 Z " fill="#FCD24F" transform="translate(317,280)"/>
<path d="M0 0 C3.32248902 2.21499268 5.89099542 4.36866203 7.8125 7.875 C8.51377676 11.41319967 8.44554905 14.8734287 8.38012695 18.47021484 C8.38085709 19.52447662 8.38158722 20.5787384 8.38233948 21.66494751 C8.37886446 25.13913968 8.34000494 28.6119804 8.30078125 32.0859375 C8.29145288 34.49874133 8.28433688 36.91155464 8.27934265 39.32437134 C8.26027507 45.66707624 8.21117507 52.00920637 8.15582275 58.35168457 C8.10462585 64.82682521 8.08182758 71.30205894 8.05664062 77.77734375 C8.00305716 90.47680736 7.9187108 103.17587307 7.8125 115.875 C0.39110363 109.57813622 0.39110363 109.57813622 -2.53320312 106.65869141 C-3.09068237 106.10436432 -3.64816162 105.55003723 -4.22253418 104.97891235 C-4.7987854 104.4006369 -5.37503662 103.82236145 -5.96875 103.2265625 C-6.89451843 102.30222916 -6.89451843 102.30222916 -7.83898926 101.35922241 C-9.13428485 100.06460252 -10.42833779 98.76873823 -11.72119141 97.47167969 C-13.6789052 95.50861828 -15.64188971 93.55094262 -17.60546875 91.59375 C-18.87271646 90.32584122 -20.1396538 89.05762213 -21.40625 87.7890625 C-21.98250122 87.21483551 -22.55875244 86.64060852 -23.15246582 86.04898071 C-26.09235899 83.09246447 -28.91132534 80.07753939 -31.63549805 76.92041016 C-35.1758178 72.83049656 -38.94391472 69.0241679 -42.80078125 65.234375 C-44.22734267 63.82044277 -45.65377118 62.40637643 -47.08007812 60.9921875 C-49.30125919 58.79593026 -51.52403013 56.6013272 -53.74926758 54.40917969 C-55.91664541 52.27194718 -58.07780683 50.12858252 -60.23828125 47.984375 C-60.90596024 47.33015564 -61.57363922 46.67593628 -62.2615509 46.00189209 C-62.87947006 45.38735168 -63.49738922 44.77281128 -64.1340332 44.13964844 C-64.67695511 43.60418396 -65.21987701 43.06871948 -65.7792511 42.51702881 C-68.4546137 39.3975359 -69.49087936 36.58237634 -69.5625 32.5 C-69.59085938 31.77039063 -69.61921875 31.04078125 -69.6484375 30.2890625 C-68.69827533 25.31278944 -66.01783651 22.46076466 -61.96484375 19.6015625 C-60.69503554 18.88282526 -59.41428785 18.18317855 -58.125 17.5 C-57.42673096 17.12061279 -56.72846191 16.74122559 -56.0090332 16.3503418 C-44.4809585 10.22943159 -32.39519393 5.42706389 -20 1.375 C-19.23453857 1.11952393 -18.46907715 0.86404785 -17.68041992 0.60083008 C-11.63200575 -1.28867671 -6.13343286 -2.16474101 0 0 Z " fill="#FCD24F" transform="translate(223.1875,80.125)"/>
<path d="M0 0 C2.87702372 1.38440708 4.95257101 2.70432316 7.20703125 4.9765625 C7.79419922 5.56566406 8.38136719 6.15476562 8.98632812 6.76171875 C9.58896484 7.37660156 10.19160156 7.99148438 10.8125 8.625 C11.40353516 9.21667969 11.99457031 9.80835938 12.60351562 10.41796875 C15.56166854 13.40515479 18.40946114 16.44502873 21.13745117 19.64404297 C25.34565103 24.47175646 29.85701535 28.96452482 34.40625 33.46875 C35.28978149 34.34849487 36.17331299 35.22823975 37.08361816 36.13464355 C39.88665133 38.92554506 42.69279916 41.71329232 45.5 44.5 C49.2010055 48.17398738 52.89831822 51.85165602 56.59375 55.53125 C57.85185486 56.77690735 57.85185486 56.77690735 59.13537598 58.04772949 C76.46223093 75.30283763 76.46223093 75.30283763 77.5 82.4375 C76.91301545 86.61976492 75.53391955 89.67351829 73 93 C70.62861906 94.76400518 68.58213635 96.09413862 66 97.4375 C65.30503418 97.81237549 64.61006836 98.18725098 63.89404297 98.57348633 C55.23653018 103.11223752 46.1668561 106.64094878 37 110 C36.17016602 110.30631348 35.34033203 110.61262695 34.48535156 110.92822266 C32.08014893 111.80564285 29.66802556 112.65862838 27.25 113.5 C26.53602051 113.75547607 25.82204102 114.01095215 25.08642578 114.27416992 C19.42428645 116.17334304 14.205263 116.819951 8.3125 115.3125 C4.27773472 113.02249808 1.47489741 110.42469224 0 106 C-0.08870383 104.54049904 -0.12198492 103.07725954 -0.12025452 101.61506653 C-0.12162918 100.71904221 -0.12300385 99.82301788 -0.12442017 98.89984131 C-0.12082489 97.91944885 -0.11722961 96.9390564 -0.11352539 95.92895508 C-0.11367142 94.89463852 -0.11381744 93.86032196 -0.1139679 92.79466248 C-0.1132702 89.36959754 -0.10548446 85.94458671 -0.09765625 82.51953125 C-0.09579156 80.14727305 -0.0943679 77.77501446 -0.09336853 75.40275574 C-0.08954736 69.15397074 -0.07972045 62.90520893 -0.06866455 56.65643311 C-0.05844186 50.2820263 -0.05386907 43.90761576 -0.04882812 37.53320312 C-0.03809786 25.02212552 -0.02121797 12.51106399 0 0 Z " fill="#FCD34F" transform="translate(281,317)"/>
<path d="M0 0 C2.76499624 0.83021019 5.45889252 1.76900381 8.16503906 2.77441406 C9.14811035 3.12874512 10.13118164 3.48307617 11.14404297 3.84814453 C48.72540687 17.75403074 48.72540687 17.75403074 54.29003906 28.39941406 C55.37780003 35.21223273 54.34434322 38.80055355 50.29003906 44.39941406 C48.40943084 46.45435631 46.52379822 48.42974578 44.546875 50.38549805 C43.98368057 50.95059082 43.42048615 51.51568359 42.84022522 52.09790039 C40.98979444 53.95201475 39.13229651 55.79886272 37.27441406 57.64550781 C35.9761361 58.94259196 34.67822946 60.24004788 33.38067627 61.53785706 C30.66360643 64.25336592 27.94322153 66.96549348 25.22021484 69.67504883 C21.74759523 73.13072191 18.28155104 76.59289745 14.81777573 80.05743313 C12.13789099 82.73704447 9.45539631 85.41403024 6.77204132 88.09016609 C5.49415631 89.36489091 4.21685671 90.6402029 2.94017792 91.91613579 C-9.78394316 104.62469257 -9.78394316 104.62469257 -16.70996094 110.39941406 C-17.6080246 111.15471657 -17.6080246 111.15471657 -18.52423096 111.92527771 C-19.91439971 113.08941003 -21.31129011 114.24551063 -22.70996094 115.39941406 C-22.78654143 100.73248292 -22.77162419 86.06639114 -22.70996094 71.39941406 C-22.70742058 70.74764946 -22.70488022 70.09588486 -22.70226288 69.42436981 C-22.66880256 60.9234996 -22.61630857 52.42313156 -22.52444935 43.92267513 C-22.48624085 40.37249273 -22.45454909 36.82254787 -22.4392395 33.27218628 C-22.42140258 29.25427134 -22.37169197 25.23734066 -22.31933594 21.21972656 C-22.31810226 20.01213181 -22.31686859 18.80453705 -22.31559753 17.56034851 C-22.20439065 11.2406445 -22.09110511 7.12582721 -17.70996094 2.39941406 C-12.78017536 -2.31868585 -6.29607793 -1.395347 0 0 Z " fill="#FDD34F" transform="translate(302.7099609375,79.6005859375)"/>
<path d="M0 0 C0.19439438 64.8020949 0.19439438 64.8020949 -0.20852661 86.76461792 C-0.2359384 88.36601897 -0.25678684 89.96754729 -0.27072144 91.56912231 C-0.41110757 106.20802715 -0.41110757 106.20802715 -5 112 C-8.79419149 115.45940989 -12.3818446 115.27354891 -17.26660156 115.2121582 C-21.69525263 114.86841957 -25.64195805 113.59773645 -29.8125 112.125 C-30.70686768 111.81763916 -31.60123535 111.51027832 -32.52270508 111.19360352 C-70.18920361 97.80538042 -70.18920361 97.80538042 -77 86 C-78.03994488 80.26624986 -77.58686047 76.4904027 -74.25535583 71.64596558 C-72.00768347 68.69891962 -69.39908773 66.13522921 -66.765625 63.53515625 C-66.16876892 62.93875839 -65.57191284 62.34236053 -64.95697021 61.72789001 C-63.69861815 60.47254478 -62.43785085 59.21961637 -61.17480469 57.96899414 C-59.26443849 56.07680114 -57.36211343 54.1768127 -55.4609375 52.27539062 C-54.22963541 51.04900837 -52.99787887 49.82308217 -51.765625 48.59765625 C-51.20699768 48.04014175 -50.64837036 47.48262726 -50.07281494 46.90821838 C-47.16479514 44.03411174 -44.19811189 41.27779806 -41.10009766 38.60888672 C-36.73430667 34.82634078 -32.68332999 30.77518364 -28.6328125 26.66015625 C-27.07304506 25.08776325 -25.51314552 23.51550129 -23.953125 21.94335938 C-21.52186969 19.4871288 -19.09225729 17.0293121 -16.66503906 14.5690918 C-14.30443461 12.17847165 -11.93780197 9.79395526 -9.5703125 7.41015625 C-8.84014923 6.66653336 -8.10998596 5.92291046 -7.35769653 5.15675354 C-6.34556595 4.13955482 -6.34556595 4.13955482 -5.31298828 3.10180664 C-4.7197879 2.50114883 -4.12658752 1.90049103 -3.51541138 1.28163147 C-2 0 -2 0 0 0 Z " fill="#FDD34F" transform="translate(232,318)"/>
<path d="M0 0 C6.88497052 4.83412824 10.44677064 13.61607613 13.9375 21.0625 C14.36611328 21.9695166 14.79472656 22.8765332 15.23632812 23.81103516 C30.21690783 56.0938455 30.21690783 56.0938455 26.25 68.15234375 C23.984425 72.61741448 21.51046424 74.32606622 16.9375 76.0625 C13.46267784 76.47364968 10.02133518 76.44195935 6.52587891 76.40307617 C4.97374695 76.40373329 4.97374695 76.40373329 3.39025879 76.40440369 C-0.01866744 76.4023192 -3.42709752 76.37900357 -6.8359375 76.35546875 C-9.20390555 76.3498716 -11.57187708 76.34560207 -13.93984985 76.34260559 C-20.16401812 76.33116625 -26.38797546 76.30170659 -32.61206055 76.26849365 C-38.96660509 76.23777333 -45.32118381 76.22409604 -51.67578125 76.20898438 C-64.13811336 76.17683627 -76.60028912 76.12565068 -89.0625 76.0625 C-82.76563622 68.64110363 -82.76563622 68.64110363 -79.84619141 65.71679688 C-79.29186432 65.15931763 -78.73753723 64.60183838 -78.16641235 64.02746582 C-77.5881369 63.4512146 -77.00986145 62.87496338 -76.4140625 62.28125 C-75.48972916 61.35548157 -75.48972916 61.35548157 -74.54672241 60.41101074 C-73.25210252 59.11571515 -71.95623823 57.82166221 -70.65917969 56.52880859 C-68.69611828 54.5710948 -66.73844262 52.60811029 -64.78125 50.64453125 C-63.51334122 49.37728354 -62.24512213 48.1103462 -60.9765625 46.84375 C-60.40233551 46.26749878 -59.82810852 45.69124756 -59.23648071 45.09753418 C-56.27996447 42.15764101 -53.26503939 39.33867466 -50.10791016 36.61450195 C-46.01799656 33.0741822 -42.2116679 29.30608528 -38.421875 25.44921875 C-37.00794277 24.02265733 -35.59387643 22.59622882 -34.1796875 21.16992188 C-31.98343026 18.94874081 -29.7888272 16.72596987 -27.59667969 14.50073242 C-25.45944718 12.33335459 -23.31608252 10.17219317 -21.171875 8.01171875 C-20.51765564 7.34403976 -19.86343628 6.67636078 -19.18939209 5.9884491 C-18.57485168 5.37052994 -17.96031128 4.75261078 -17.32714844 4.1159668 C-16.52395172 3.30158394 -16.52395172 3.30158394 -15.70452881 2.4707489 C-10.8803421 -1.66660581 -6.00087625 -1.83700293 0 0 Z " fill="#FCD24F" transform="translate(405.0625,154.9375)"/>
<path d="M0 0 C1.03460861 -0.00043808 2.06921722 -0.00087616 3.13517761 -0.00132751 C6.54953993 0.00075987 9.96340917 0.0240892 13.37768555 0.04760742 C15.74708284 0.05320354 18.11648361 0.05747356 20.48588562 0.06047058 C26.71828822 0.07191805 32.95048066 0.10138469 39.18280029 0.13458252 C45.54395708 0.16528533 51.90514787 0.17897639 58.26635742 0.1940918 C70.74496532 0.22625423 83.22341732 0.27744965 95.7019043 0.34057617 C94.28259088 3.29541935 92.89976102 5.39158621 90.57250977 7.71289062 C89.93779755 8.35067947 89.30308533 8.98846832 88.6491394 9.64558411 C87.96272369 10.3248143 87.27630798 11.00404449 86.5690918 11.70385742 C85.8584256 12.4140654 85.1477594 13.12427338 84.41555786 13.85600281 C82.90985524 15.35868574 81.40172432 16.85893885 79.89135742 18.35693359 C77.60114127 20.62903095 75.31889119 22.90888939 73.0378418 25.19018555 C71.56956002 26.65354612 70.10082406 28.11645116 68.6315918 29.57885742 C67.95732147 30.25201492 67.28305115 30.92517242 66.58834839 31.61872864 C63.36587655 34.80974683 60.10188539 37.90028748 56.66796875 40.86352539 C52.68574635 44.3050064 48.99188102 47.97214974 45.31518555 51.73510742 C43.95153858 53.11624856 42.58759781 54.49709968 41.22338867 55.87768555 C39.10703634 58.02511355 36.9931394 60.17480414 34.88427734 62.32958984 C32.82631581 64.42985617 30.75903916 66.52057707 28.69018555 68.61010742 C28.06300125 69.25591263 27.43581696 69.90171783 26.78962708 70.5670929 C23.04535165 74.33312611 19.97031908 77.17267815 14.4206543 77.45776367 C13.6884668 77.3778418 12.9562793 77.29791992 12.2019043 77.21557617 C11.4697168 77.15112305 10.7375293 77.08666992 9.9831543 77.02026367 C5.11795879 75.570702 2.60823177 72.47439153 0.1237793 68.23510742 C-0.78362451 66.55002507 -1.6732664 64.85529763 -2.5480957 63.15307617 C-3.02045654 62.24485107 -3.49281738 61.33662598 -3.97949219 60.40087891 C-9.10045721 50.23712497 -12.86904781 39.59979312 -16.46801758 28.81958008 C-17.12497552 26.85759451 -17.8167384 24.90726649 -18.52075195 22.96166992 C-20.25533565 17.11289775 -20.26277117 11.34138455 -17.6105957 5.84057617 C-12.19543123 -0.01365569 -7.59235336 -0.08414473 0 0 Z " fill="#FCD24F" transform="translate(99.298095703125,280.659423828125)"/>
</svg>
